<mxfile host="app.diagrams.net" agent="Mozilla/5.0 (X11; Ubuntu; Linux x86_64; rv:129.0) Gecko/20100101 Firefox/129.0" version="24.7.17">
  <diagram name="PÃ¡gina-1" id="AW3J2xzPm8_il0Rkn9sB">
    <mxGraphModel dx="989" dy="496" grid="1" gridSize="10" guides="1" tooltips="1" connect="1" arrows="1" fold="1" page="1" pageScale="1" pageWidth="827" pageHeight="1169" math="0" shadow="0">
      <root>
        <mxCell id="0" />
        <mxCell id="1" parent="0" />
        <mxCell id="dXsNtakiWX1lUZO_yZtj-1" value="" style="shape=step;perimeter=stepPerimeter;whiteSpace=wrap;html=1;fixedSize=1;fillColor=#62a0ea;" vertex="1" parent="1">
          <mxGeometry x="9" y="250" width="150" height="100" as="geometry" />
        </mxCell>
        <mxCell id="dXsNtakiWX1lUZO_yZtj-2" value="" style="shape=step;perimeter=stepPerimeter;whiteSpace=wrap;html=1;fixedSize=1;fillColor=#3584e4;" vertex="1" parent="1">
          <mxGeometry x="149" y="250" width="100" height="100" as="geometry" />
        </mxCell>
        <mxCell id="dXsNtakiWX1lUZO_yZtj-3" value="" style="shape=step;perimeter=stepPerimeter;whiteSpace=wrap;html=1;fixedSize=1;fillColor=#1c71d8;" vertex="1" parent="1">
          <mxGeometry x="239" y="250" width="150" height="100" as="geometry" />
        </mxCell>
        <mxCell id="dXsNtakiWX1lUZO_yZtj-4" value="" style="shape=step;perimeter=stepPerimeter;whiteSpace=wrap;html=1;fixedSize=1;fillColor=#1a5fb4;" vertex="1" parent="1">
          <mxGeometry x="379" y="250" width="440" height="100" as="geometry" />
        </mxCell>
        <mxCell id="dXsNtakiWX1lUZO_yZtj-5" value="" style="endArrow=none;html=1;rounded=0;exitX=0;exitY=0.5;exitDx=0;exitDy=0;entryX=1;entryY=0.5;entryDx=0;entryDy=0;" edge="1" parent="1" source="dXsNtakiWX1lUZO_yZtj-1" target="dXsNtakiWX1lUZO_yZtj-4">
          <mxGeometry width="50" height="50" relative="1" as="geometry">
            <mxPoint x="430" y="370" as="sourcePoint" />
            <mxPoint x="480" y="320" as="targetPoint" />
          </mxGeometry>
        </mxCell>
        <mxCell id="dXsNtakiWX1lUZO_yZtj-9" value="&lt;div&gt;1940&lt;/div&gt;" style="text;html=1;align=center;verticalAlign=middle;whiteSpace=wrap;rounded=0;" vertex="1" parent="1">
          <mxGeometry x="9" y="300" width="60" height="30" as="geometry" />
        </mxCell>
        <mxCell id="dXsNtakiWX1lUZO_yZtj-10" value="1955" style="text;html=1;align=center;verticalAlign=middle;whiteSpace=wrap;rounded=0;" vertex="1" parent="1">
          <mxGeometry x="110" y="270" width="60" height="30" as="geometry" />
        </mxCell>
        <mxCell id="dXsNtakiWX1lUZO_yZtj-11" value="1965" style="text;html=1;align=center;verticalAlign=middle;whiteSpace=wrap;rounded=0;" vertex="1" parent="1">
          <mxGeometry x="200" y="300" width="60" height="30" as="geometry" />
        </mxCell>
        <mxCell id="dXsNtakiWX1lUZO_yZtj-12" value="1980" style="text;html=1;align=center;verticalAlign=middle;whiteSpace=wrap;rounded=0;" vertex="1" parent="1">
          <mxGeometry x="340" y="270" width="60" height="30" as="geometry" />
        </mxCell>
        <mxCell id="dXsNtakiWX1lUZO_yZtj-13" value="2024" style="text;html=1;align=center;verticalAlign=middle;whiteSpace=wrap;rounded=0;" vertex="1" parent="1">
          <mxGeometry x="767" y="300" width="60" height="30" as="geometry" />
        </mxCell>
      </root>
    </mxGraphModel>
  </diagram>
</mxfile>
